# xmcd CD database file generated by OrangeCD 5.0
#
# Track frame offsets:
#	150
#	14950
#	29561
#	51469
#	71576
#	88151
#	119180
#	137868
#	151824
#	170497
#	186711
#	204085
#	231169
#	248494
#	261880
#
# Disc length: 3693 seconds
#
# Revision: 0
# Processed by: cddbd v1.4PL0 Copyright (c) Steve Scherf et al.
# Submitted via: OrangeCD 5.0
#
DISCID=e50e6b0f
DTITLE=Rosy Parsons - Pride of Place
DYEAR=1999
DGENRE=Country
TTITLE0=Southern Man
TTITLE1=Woman of the Nineties
TTITLE2=Changes
TTITLE3=Kiwi Cowboy
TTITLE4=Love in Time
TTITLE5=In Search of a Moose
TTITLE6=Early Harvest
TTITLE7=Different Light
TTITLE8=Tim
TTITLE9=Every Now and Then
TTITLE10=You're My Rock
TTITLE11=William John Steven
TTITLE12=Easy Way Out
TTITLE13=Tarras Tearooms
TTITLE14=Wanaka 2000 You and Me
EXTD=
EXTT0=
EXTT1=
EXTT2=
EXTT3=
EXTT4=
EXTT5=
EXTT6=
EXTT7=
EXTT8=
EXTT9=
EXTT10=
EXTT11=
EXTT12=
EXTT13=
EXTT14=
PLAYORDER=
